<?xml version="1.0" encoding="utf-8"?>
<!-- Generator: Adobe Illustrator 16.0.3, SVG Export Plug-In . SVG Version: 6.00 Build 0)  -->
<!DOCTYPE svg PUBLIC "-//W3C//DTD SVG 1.1//EN" "http://www.w3.org/Graphics/SVG/1.1/DTD/svg11.dtd">
<svg version="1.1" id="Layer_1" xmlns="http://www.w3.org/2000/svg" xmlns:xlink="http://www.w3.org/1999/xlink" x="0px" y="0px"
	 width="66.54px" height="60.761px" viewBox="0 0 66.54 60.761" enable-background="new 0 0 66.54 60.761" xml:space="preserve">
<symbol  id="Regal_Vector_Pack_21" viewBox="-133.079 -121.523 266.159 243.046">
	<path fill="#FFFFFF" d="M85.258-12.177c12.414-5.291,20.757-15.261,20.757-15.261C99.91-14.21,79.152-2.205,79.152-2.205
		c31.949-8.342,53.928,0,53.928,0c-23.402-4.883-56.166,4.682-56.166,4.682c27.677-6.715,46.397,2.645,46.397,2.645
		c-13.968-2.233-47.357,4.902-52.923,6.132c22.373,5.499,35.225,26.455,35.225,26.455c-13.215-15.969-27.31-22.168-39.356-23.92
		c1.124,0.361,2.294,0.764,3.515,1.216c33.01,12.198,40.178,49.013,40.178,49.013C99.928,40.674,85.618,29.612,72.055,24.772
		C110.669,50.935,97.264,93.44,97.264,93.44c3.164-26.633-6.746-45.095-19.562-57.617c0.954,1.351,1.912,2.779,2.876,4.3
		c26.048,41.107-10.176,81.399-10.176,81.399c28.896-54.537-7.326-85.47-30.524-98.493C25.037,14.697,20.023,6.532,18.338,1.731
		c-1.616,10.527-5.558,21.829-7.785,26.656c-1.449,3.137-1.472,5.495-1.056,7.148c1.446,3.199,6.824,3.778,6.824,3.778
		c-4.491,1.807-7.543,0.393-9.277-1.047c0.014,0.069,0.028,0.135,0.038,0.208c0.55,4.193,7.143,4.9,7.143,4.9
		c-4.919,1.98-8.113,0.095-9.738-1.456c0.702,4.044,7.113,4.735,7.113,4.735c-6.748,2.717-10.248-1.84-10.907-2.826
		c-3.506-1.044-7.188-0.025-10.49,0.432c-2.808,0.389-4.851-0.813-5.792-1.533c-2.64,0.849-2.889,5.196-2.889,5.196
		c-1.455-3.152-0.551-5.388,0.417-6.684c-0.048,0.014-0.095,0.026-0.146,0.036c-2.985,0.543-3.256,5.292-3.256,5.292
		c-1.595-3.454-0.356-5.809,0.696-7.027c-2.873,0.644-3.139,5.263-3.139,5.263c-2.054-4.448,0.593-7.074,1.487-7.799
		c-6.007,0.014-12.835-3.125-10.984-7.803c0,0,1.628,5.155,12.21,2.441c0.304-0.078,0.597-0.149,0.882-0.218
		c-2.19-0.329-4.965-1.144-5.901-3.174c0,0,3.105,1.736,6.817-0.488c-2.067-2.158-5.4-4.206-9.395-1.411
		c0,0,2.306-4.883,8.818-2.577c2.145,0.759,4.081,1.15,5.712,1.5c0.789-5.163-2.546-10.013-5.902-19.645
		c-2.761,4.749-8.359,11.023-19.716,17.398c-23.198,13.023-59.42,43.956-30.524,98.493c0,0-36.222-40.292-10.174-81.399
		c0.964-1.521,1.922-2.949,2.875-4.3c-12.815,12.522-22.726,30.984-19.563,57.617c0,0-13.405-42.506,25.21-68.668
		c-13.564,4.84-27.874,15.901-37.896,39.244c0,0,7.168-36.814,40.179-49.013c1.22-0.452,2.391-0.854,3.513-1.216
		c-12.045,1.752-26.141,7.951-39.354,23.92c0,0,12.852-20.956,35.225-26.455c-5.567-1.229-38.957-8.365-52.925-6.132
		c0,0,18.722-9.359,46.397-2.645c0,0-32.764-9.564-56.165-4.682c0,0,21.978-8.342,53.926,0c0,0-20.756-12.005-26.86-25.232
		c0,0,8.343,9.97,20.758,15.261c0,0-15.875-14.854-23.404-32.151c0,0,8.954,10.377,20.758,15.06
		c4.184,1.658,9.648,5.979,14.957,10.864c-1.693-4.679-3.37-10.778-4.512-18.485c0,0,4.59,9.432,13.767,19.153
		c-1.777-4.762-3.561-11.073-4.758-19.153c0,0,4.589,9.432,13.767,19.153c-1.777-4.762-3.562-11.073-4.758-19.153
		c0,0,4.588,9.432,13.766,19.153c-1.776-4.762-3.561-11.073-4.759-19.153c0,0,4.59,9.432,13.767,19.153
		c-1.777-4.762-3.561-11.073-4.758-19.153c0,0,4.589,9.432,13.767,19.153c-1.777-4.762-3.562-11.073-4.758-19.153
		c0,0,3.763,7.727,11.282,16.401c0.372-7.772,2.1-16.453,4.408-24.956c-3.841-1.596-7.403-6.688-10.646-6.397
		c-5.624,0.505-4.842,6.471-4.842,6.471c-3.902-6.716,1.094-11.604,1.094-11.604c-4.525,1.429-6.726,7.785-6.726,7.785
		c-0.784-5.966,3.028-9.657,3.028-9.657c-5.463,0.145-7.596,3.942-7.596,3.942c0.431-2.761,3.462-5.186,5.696-6.629l-6.392-2.861
		c-0.264,2.911-1.309,5.784-3.189,8.286c-0.416,0.76-1.176,1.318-2.102,1.435c-0.199,0.026-0.392,0.029-0.582,0.014
		c-1.104,1.013-4.086,3.35-8.125,3.318c0,0,4.34-1.089,6.244-4.268c-0.354-0.405-0.597-0.917-0.671-1.492
		c-0.193-1.536,0.894-2.938,2.43-3.133c0.524-0.065,1.03,0.021,1.481,0.218c0.788-1.567,1.232-3.245,1.353-4.936
		c-2.292,3.651-5.718,6.632-10.017,8.348c-0.97,0.558-2.186,0.663-3.284,0.17c-0.235-0.104-0.451-0.231-0.651-0.377
		c-1.896,0.377-6.761,0.95-11.197-1.798c0,0,5.521,1.716,9.76-0.512c-0.121-0.687-0.043-1.416,0.264-2.099
		c0.817-1.826,2.959-2.642,4.785-1.825c0.623,0.279,1.124,0.715,1.486,1.235c5.677-3.541,8.726-10.146,7.769-16.739
		c-0.614,0.063-1.252-0.024-1.856-0.295c-1.826-0.817-2.643-2.959-1.826-4.784c0.188-0.416,0.443-0.774,0.745-1.078
		c-0.968-1.117-2.763-2.447-5.874-2.541c0,0,4.493-1.682,7.994,1.509c0.634-0.08,1.295,0.004,1.921,0.284
		c0.698,0.313,1.247,0.82,1.616,1.43c2.13,3.059,2.129,12.845,2.092,15.348l7.519,3.366c-0.411-2.626-0.62-6.503,1.15-8.662
		c0,0-1.412,4.117,2.118,8.29c0,0,0.215-5.302,5.188-8.689c0,0-3.277,5.875-1.328,10.202c0,0,0.318-6.982,7.928-8.544
		c0,0-4.972,3.388-1.603,7.921c1.643,2.209,6.308,2.027,9.974,3.006c0.294-0.837,0.59-1.663,0.885-2.479
		c-2.63-3.876-5.197-7.939-6.991-11.436c-5.426-10.573-2.713-16.448-2.713-16.448c1.899,6.546,7.869,10.238,7.869,10.238
		c-4.885-6.042-4.612-17.456-4.612-17.456c2.713,8.225,7.054,11.245,7.054,11.245c2.714-13.427-7.598-23.834-7.598-23.834
		c5.928,2.808,9.273,8.914,11.161,14.647c1.742-14.503-7.633-24.215-7.633-24.215s12.45,6.401,14.177,20.82
		c1.726-14.419,14.177-20.82,14.177-20.82s-9.376,9.712-7.633,24.215c1.886-5.733,5.233-11.84,11.16-14.647
		c0,0-10.312,10.407-7.597,23.834c0,0,4.341-3.021,7.053-11.245c0,0,0.272,11.414-4.611,17.456c0,0,5.968-3.692,7.867-10.238
		c0,0,2.716,5.875-2.712,16.448c-2.037,3.969-5.069,8.67-8.059,12.995c0.164,0.465,0.328,0.933,0.494,1.403
		c3.772-1.561,9.562-0.974,11.432-3.49c3.369-4.533-1.604-7.921-1.604-7.921c7.61,1.562,7.929,8.544,7.929,8.544
		c1.95-4.327-1.328-10.202-1.328-10.202c4.972,3.388,5.188,8.689,5.188,8.689c3.529-4.173,2.116-8.29,2.116-8.29
		c1.772,2.159,1.564,6.036,1.152,8.662l7.519-3.366c-0.037-2.503-0.04-12.289,2.092-15.348c0.368-0.609,0.918-1.117,1.615-1.43
		c0.625-0.28,1.288-0.364,1.923-0.284c3.501-3.19,7.991-1.509,7.991-1.509c-3.109,0.094-4.904,1.424-5.872,2.541
		c0.303,0.304,0.559,0.662,0.744,1.078c0.817,1.825,0,3.967-1.825,4.784c-0.603,0.271-1.242,0.358-1.857,0.295
		c-0.956,6.593,2.093,13.198,7.769,16.739c0.362-0.521,0.865-0.956,1.487-1.235c1.825-0.816,3.968-0.001,4.786,1.825
		c0.305,0.683,0.383,1.412,0.264,2.099c4.237,2.228,9.759,0.512,9.759,0.512c-4.437,2.748-9.299,2.175-11.198,1.798
		c-0.199,0.146-0.417,0.272-0.651,0.377c-1.099,0.493-2.313,0.388-3.283-0.17c-4.3-1.716-7.726-4.696-10.016-8.348
		c0.117,1.69,0.563,3.368,1.354,4.936c0.448-0.197,0.955-0.283,1.479-0.218c1.535,0.194,2.623,1.597,2.428,3.133
		c-0.072,0.575-0.314,1.087-0.669,1.492c1.903,3.179,6.244,4.268,6.244,4.268c-4.04,0.031-7.021-2.306-8.126-3.318
		c-0.19,0.016-0.385,0.013-0.581-0.014c-0.925-0.116-1.686-0.675-2.103-1.435c-1.88-2.502-2.926-5.375-3.189-8.286l-6.391,2.861
		c2.234,1.443,5.266,3.868,5.695,6.629c0,0-2.131-3.798-7.596-3.942c0,0,3.813,3.691,3.028,9.657c0,0-2.198-6.356-6.726-7.785
		c0,0,4.998,4.888,1.094,11.604c0,0,0.783-5.966-4.84-6.471c-3.667-0.329-7.74,6.221-12.16,6.823
		c2.427,9.015,4.185,18.209,4.357,26.291c8.563-9.361,12.845-18.162,12.845-18.162c-1.196,8.08-2.98,14.392-4.757,19.153
		c9.177-9.722,13.767-19.153,13.767-19.153c-1.198,8.08-2.982,14.392-4.759,19.153c9.178-9.722,13.766-19.153,13.766-19.153
		c-1.197,8.08-2.98,14.392-4.757,19.153C54.852-27.458,59.44-36.89,59.44-36.89c-1.197,8.08-2.98,14.392-4.758,19.153
		c9.177-9.722,13.767-19.153,13.767-19.153c-1.198,8.08-2.982,14.392-4.76,19.153c9.178-9.722,13.767-19.153,13.767-19.153
		c-1.142,7.707-2.816,13.807-4.512,18.485c5.311-4.886,10.773-9.206,14.959-10.864c11.803-4.683,20.758-15.06,20.758-15.06
		C101.131-27.031,85.258-12.177,85.258-12.177z M-17.395,36.257c0,0,4.071,1.898,8.142,1.085
		C-5.185,36.528-13.052,32.729-17.395,36.257z"/>
</symbol>
<use xlink:href="#Regal_Vector_Pack_21"  width="266.159" height="243.046" id="XMLID_1_" x="-133.079" y="-121.523" transform="matrix(0.25 0 0 -0.25 33.27 30.3804)" overflow="visible"/>
</svg>
